<mxfile host="app.diagrams.net" modified="2023-04-16T13:31:39.217Z" agent="Mozilla/5.0 (Windows NT 10.0; Win64; x64) AppleWebKit/537.36 (KHTML, like Gecko) Chrome/112.0.0.0 Safari/537.36" etag="ejVARe5NOtJ4JZFesg5y" version="21.1.8" type="device">
  <diagram name="Page-1" id="Wp2R_G1JPqjENKUrIt__">
    <mxGraphModel dx="2350" dy="1919" grid="1" gridSize="10" guides="1" tooltips="1" connect="1" arrows="1" fold="1" page="1" pageScale="1" pageWidth="850" pageHeight="1100" math="0" shadow="0">
      <root>
        <mxCell id="0" />
        <mxCell id="1" parent="0" />
        <mxCell id="yIrZOceJZYxYdoTycJ7F-1" value="" style="whiteSpace=wrap;html=1;aspect=fixed;strokeWidth=5;" vertex="1" parent="1">
          <mxGeometry x="-70" y="-120" width="920" height="920" as="geometry" />
        </mxCell>
        <mxCell id="yIrZOceJZYxYdoTycJ7F-2" value="&lt;h1&gt;Observation Matrix&lt;/h1&gt;" style="text;html=1;strokeColor=none;fillColor=none;spacing=5;spacingTop=-20;whiteSpace=wrap;overflow=hidden;rounded=0;" vertex="1" parent="1">
          <mxGeometry x="-40" y="-90" width="230" height="40" as="geometry" />
        </mxCell>
        <mxCell id="yIrZOceJZYxYdoTycJ7F-3" value="" style="rounded=0;whiteSpace=wrap;html=1;strokeColor=#7A7A7A;strokeWidth=5;" vertex="1" parent="1">
          <mxGeometry x="210" y="-90" width="120" height="60" as="geometry" />
        </mxCell>
        <mxCell id="yIrZOceJZYxYdoTycJ7F-4" value="Design For:" style="text;html=1;strokeColor=none;fillColor=none;align=center;verticalAlign=middle;whiteSpace=wrap;rounded=0;" vertex="1" parent="1">
          <mxGeometry x="220" y="-85" width="70" height="30" as="geometry" />
        </mxCell>
        <mxCell id="yIrZOceJZYxYdoTycJ7F-5" value="" style="rounded=0;whiteSpace=wrap;html=1;strokeColor=#7A7A7A;strokeWidth=5;" vertex="1" parent="1">
          <mxGeometry x="365" y="-90" width="120" height="60" as="geometry" />
        </mxCell>
        <mxCell id="yIrZOceJZYxYdoTycJ7F-6" value="" style="rounded=0;whiteSpace=wrap;html=1;strokeColor=#7A7A7A;strokeWidth=5;" vertex="1" parent="1">
          <mxGeometry x="510" y="-90" width="120" height="60" as="geometry" />
        </mxCell>
        <mxCell id="yIrZOceJZYxYdoTycJ7F-17" style="edgeStyle=orthogonalEdgeStyle;rounded=0;orthogonalLoop=1;jettySize=auto;html=1;exitX=0.75;exitY=1;exitDx=0;exitDy=0;entryX=0.75;entryY=1;entryDx=0;entryDy=0;" edge="1" parent="1" source="yIrZOceJZYxYdoTycJ7F-7">
          <mxGeometry relative="1" as="geometry">
            <mxPoint x="732.5" y="-40" as="targetPoint" />
          </mxGeometry>
        </mxCell>
        <mxCell id="yIrZOceJZYxYdoTycJ7F-7" value="" style="rounded=0;whiteSpace=wrap;html=1;strokeColor=#7A7A7A;strokeWidth=5;" vertex="1" parent="1">
          <mxGeometry x="660" y="-90" width="120" height="60" as="geometry" />
        </mxCell>
        <mxCell id="yIrZOceJZYxYdoTycJ7F-8" value="Design By:" style="text;html=1;strokeColor=none;fillColor=none;align=center;verticalAlign=middle;whiteSpace=wrap;rounded=0;" vertex="1" parent="1">
          <mxGeometry x="375" y="-80" width="70" height="30" as="geometry" />
        </mxCell>
        <mxCell id="yIrZOceJZYxYdoTycJ7F-9" value="Date:" style="text;html=1;strokeColor=none;fillColor=none;align=center;verticalAlign=middle;whiteSpace=wrap;rounded=0;" vertex="1" parent="1">
          <mxGeometry x="520" y="-75" width="70" height="30" as="geometry" />
        </mxCell>
        <mxCell id="yIrZOceJZYxYdoTycJ7F-12" value="" style="whiteSpace=wrap;html=1;aspect=fixed;strokeWidth=5;direction=west;" vertex="1" parent="1">
          <mxGeometry width="770" height="770" as="geometry" />
        </mxCell>
        <mxCell id="yIrZOceJZYxYdoTycJ7F-13" value="" style="endArrow=none;html=1;rounded=0;exitX=0.5;exitY=1;exitDx=0;exitDy=0;entryX=0.5;entryY=0;entryDx=0;entryDy=0;strokeWidth=5;" edge="1" parent="1" source="yIrZOceJZYxYdoTycJ7F-12" target="yIrZOceJZYxYdoTycJ7F-12">
          <mxGeometry width="50" height="50" relative="1" as="geometry">
            <mxPoint x="480" y="580" as="sourcePoint" />
            <mxPoint x="530" y="530" as="targetPoint" />
          </mxGeometry>
        </mxCell>
        <mxCell id="yIrZOceJZYxYdoTycJ7F-15" value="" style="endArrow=none;html=1;rounded=0;exitX=0;exitY=0.5;exitDx=0;exitDy=0;entryX=1;entryY=0.5;entryDx=0;entryDy=0;strokeWidth=5;" edge="1" parent="1" source="yIrZOceJZYxYdoTycJ7F-12" target="yIrZOceJZYxYdoTycJ7F-12">
          <mxGeometry width="50" height="50" relative="1" as="geometry">
            <mxPoint x="395" y="780" as="sourcePoint" />
            <mxPoint x="395" y="10" as="targetPoint" />
          </mxGeometry>
        </mxCell>
        <mxCell id="yIrZOceJZYxYdoTycJ7F-16" value="&lt;font style=&quot;font-size: 18px;&quot;&gt;&lt;b&gt;Observations&lt;/b&gt;&lt;/font&gt;" style="text;html=1;strokeColor=none;fillColor=none;align=center;verticalAlign=middle;whiteSpace=wrap;rounded=0;" vertex="1" parent="1">
          <mxGeometry x="35" y="20" width="80" height="30" as="geometry" />
        </mxCell>
        <mxCell id="yIrZOceJZYxYdoTycJ7F-19" value="Version" style="text;html=1;strokeColor=none;fillColor=none;align=center;verticalAlign=middle;whiteSpace=wrap;rounded=0;" vertex="1" parent="1">
          <mxGeometry x="670" y="-80" width="70" height="30" as="geometry" />
        </mxCell>
        <mxCell id="yIrZOceJZYxYdoTycJ7F-20" value="&lt;font style=&quot;font-size: 18px;&quot;&gt;Limited Networking Opportunities&lt;/font&gt;&lt;span id=&quot;docs-internal-guid-b64a31dd-7fff-0e39-d6c0-870af24b771c&quot;&gt;&lt;/span&gt;" style="text;html=1;strokeColor=#B09500;fillColor=#f0d824;align=center;verticalAlign=middle;whiteSpace=wrap;rounded=0;fontColor=#000000;direction=east;" vertex="1" parent="1">
          <mxGeometry x="75" y="140" width="255" height="50" as="geometry" />
        </mxCell>
        <mxCell id="yIrZOceJZYxYdoTycJ7F-21" value="&lt;font style=&quot;font-size: 18px;&quot;&gt;Lack of dedication Platform&lt;/font&gt;&lt;span id=&quot;docs-internal-guid-b64a31dd-7fff-0e39-d6c0-870af24b771c&quot;&gt;&lt;/span&gt;" style="text;html=1;strokeColor=#B09500;fillColor=#f0d824;align=center;verticalAlign=middle;whiteSpace=wrap;rounded=0;fontColor=#000000;direction=east;" vertex="1" parent="1">
          <mxGeometry x="75" y="80" width="255" height="30" as="geometry" />
        </mxCell>
        <mxCell id="yIrZOceJZYxYdoTycJ7F-22" value="&lt;font style=&quot;font-size: 18px;&quot;&gt;Patient Safety Concern&lt;/font&gt;&lt;span id=&quot;docs-internal-guid-b64a31dd-7fff-0e39-d6c0-870af24b771c&quot;&gt;&lt;/span&gt;" style="text;html=1;strokeColor=#B09500;fillColor=#f0d824;align=center;verticalAlign=middle;whiteSpace=wrap;rounded=0;fontColor=#000000;direction=east;" vertex="1" parent="1">
          <mxGeometry x="75" y="210" width="255" height="30" as="geometry" />
        </mxCell>
        <mxCell id="yIrZOceJZYxYdoTycJ7F-23" value="&lt;font style=&quot;font-size: 18px;&quot;&gt;Lack of Community&lt;/font&gt;&lt;span id=&quot;docs-internal-guid-b64a31dd-7fff-0e39-d6c0-870af24b771c&quot;&gt;&lt;/span&gt;" style="text;html=1;strokeColor=#B09500;fillColor=#f0d824;align=center;verticalAlign=middle;whiteSpace=wrap;rounded=0;fontColor=#000000;direction=east;" vertex="1" parent="1">
          <mxGeometry x="75" y="270" width="255" height="30" as="geometry" />
        </mxCell>
        <mxCell id="yIrZOceJZYxYdoTycJ7F-26" value="&lt;font style=&quot;font-size: 18px;&quot;&gt;&lt;b&gt;Scouted Challenges&lt;/b&gt;&lt;/font&gt;" style="text;html=1;strokeColor=none;fillColor=none;align=center;verticalAlign=middle;whiteSpace=wrap;rounded=0;" vertex="1" parent="1">
          <mxGeometry x="560" y="20" width="200" height="30" as="geometry" />
        </mxCell>
        <mxCell id="yIrZOceJZYxYdoTycJ7F-27" value="&lt;span style=&quot;font-size: 18px;&quot;&gt;Improving Security&lt;/span&gt;" style="text;html=1;strokeColor=#B09500;fillColor=#f0d824;align=center;verticalAlign=middle;whiteSpace=wrap;rounded=0;fontColor=#000000;direction=east;" vertex="1" parent="1">
          <mxGeometry x="425" y="450" width="115" height="50" as="geometry" />
        </mxCell>
        <mxCell id="yIrZOceJZYxYdoTycJ7F-28" value="&lt;span style=&quot;font-size: 18px;&quot;&gt;Creating a new Platform exclusively for surgeons&lt;/span&gt;" style="text;html=1;strokeColor=#B09500;fillColor=#f0d824;align=center;verticalAlign=middle;whiteSpace=wrap;rounded=0;fontColor=#000000;direction=east;" vertex="1" parent="1">
          <mxGeometry x="425" y="525" width="215" height="50" as="geometry" />
        </mxCell>
        <mxCell id="yIrZOceJZYxYdoTycJ7F-29" value="" style="rounded=0;whiteSpace=wrap;html=1;fillColor=none;" vertex="1" parent="1">
          <mxGeometry x="275" y="320" width="220" height="120" as="geometry" />
        </mxCell>
        <mxCell id="yIrZOceJZYxYdoTycJ7F-30" value="&lt;font style=&quot;font-size: 14px;&quot;&gt;Surgeons for&amp;nbsp; &amp;nbsp;Surgeons&lt;/font&gt;" style="text;html=1;strokeColor=none;fillColor=none;align=center;verticalAlign=middle;whiteSpace=wrap;rounded=0;" vertex="1" parent="1">
          <mxGeometry x="290" y="340" width="170" height="30" as="geometry" />
        </mxCell>
        <mxCell id="yIrZOceJZYxYdoTycJ7F-31" value="&lt;span style=&quot;font-size: 18px;&quot;&gt;More Surgical content on present social media apps.&lt;/span&gt;" style="text;html=1;strokeColor=#B09500;fillColor=#f0d824;align=center;verticalAlign=middle;whiteSpace=wrap;rounded=0;fontColor=#000000;direction=east;" vertex="1" parent="1">
          <mxGeometry x="430" y="600" width="155" height="70" as="geometry" />
        </mxCell>
        <mxCell id="yIrZOceJZYxYdoTycJ7F-33" value="" style="endArrow=classic;html=1;rounded=0;strokeWidth=4;" edge="1" parent="1">
          <mxGeometry width="50" height="50" relative="1" as="geometry">
            <mxPoint x="355" y="164.86" as="sourcePoint" />
            <mxPoint x="415" y="164.86" as="targetPoint" />
          </mxGeometry>
        </mxCell>
        <mxCell id="yIrZOceJZYxYdoTycJ7F-34" value="&lt;font style=&quot;font-size: 18px;&quot;&gt;&lt;b&gt;Top 5 problems on the basis of Desirability, Feasibility and Viability&lt;/b&gt;&lt;/font&gt;" style="text;html=1;strokeColor=none;fillColor=none;align=center;verticalAlign=middle;whiteSpace=wrap;rounded=0;" vertex="1" parent="1">
          <mxGeometry x="430" y="720" width="330" height="30" as="geometry" />
        </mxCell>
        <mxCell id="yIrZOceJZYxYdoTycJ7F-35" value="&lt;span style=&quot;font-size: 18px;&quot;&gt;Getting Daily Active User&lt;/span&gt;" style="text;html=1;strokeColor=#B09500;fillColor=#f0d824;align=center;verticalAlign=middle;whiteSpace=wrap;rounded=0;fontColor=#000000;direction=east;" vertex="1" parent="1">
          <mxGeometry x="445" y="70" width="135" height="50" as="geometry" />
        </mxCell>
        <mxCell id="yIrZOceJZYxYdoTycJ7F-36" value="&lt;span style=&quot;font-size: 18px;&quot;&gt;Keeping Users Engaged on app&lt;/span&gt;" style="text;html=1;strokeColor=#B09500;fillColor=#f0d824;align=center;verticalAlign=middle;whiteSpace=wrap;rounded=0;fontColor=#000000;direction=east;" vertex="1" parent="1">
          <mxGeometry x="445" y="250" width="135" height="50" as="geometry" />
        </mxCell>
        <mxCell id="yIrZOceJZYxYdoTycJ7F-37" value="&lt;span style=&quot;font-size: 18px;&quot;&gt;Real-time Chat that supports photo and video sharing&lt;/span&gt;" style="text;html=1;strokeColor=#B09500;fillColor=#f0d824;align=center;verticalAlign=middle;whiteSpace=wrap;rounded=0;fontColor=#000000;direction=east;" vertex="1" parent="1">
          <mxGeometry x="605" y="80" width="135" height="90" as="geometry" />
        </mxCell>
        <mxCell id="yIrZOceJZYxYdoTycJ7F-38" value="&lt;span style=&quot;font-size: 18px;&quot;&gt;Scaling to store videos and images&lt;/span&gt;" style="text;html=1;strokeColor=#B09500;fillColor=#f0d824;align=center;verticalAlign=middle;whiteSpace=wrap;rounded=0;fontColor=#000000;direction=east;" vertex="1" parent="1">
          <mxGeometry x="445" y="150" width="135" height="70" as="geometry" />
        </mxCell>
        <mxCell id="yIrZOceJZYxYdoTycJ7F-39" value="&lt;span style=&quot;font-size: 18px;&quot;&gt;Spam user Filter&lt;/span&gt;" style="text;html=1;strokeColor=#B09500;fillColor=#f0d824;align=center;verticalAlign=middle;whiteSpace=wrap;rounded=0;fontColor=#000000;direction=east;" vertex="1" parent="1">
          <mxGeometry x="605" y="200" width="135" height="70" as="geometry" />
        </mxCell>
        <mxCell id="yIrZOceJZYxYdoTycJ7F-40" value="" style="endArrow=classic;html=1;rounded=0;strokeWidth=4;" edge="1" parent="1">
          <mxGeometry width="50" height="50" relative="1" as="geometry">
            <mxPoint x="576" y="350" as="sourcePoint" />
            <mxPoint x="575.8814285714284" y="420" as="targetPoint" />
          </mxGeometry>
        </mxCell>
        <mxCell id="yIrZOceJZYxYdoTycJ7F-45" value="&lt;span style=&quot;font-size: 18px;&quot;&gt;Increase surgeons user on present apps&lt;/span&gt;" style="text;html=1;strokeColor=#B09500;fillColor=#f0d824;align=center;verticalAlign=middle;whiteSpace=wrap;rounded=0;fontColor=#000000;direction=east;" vertex="1" parent="1">
          <mxGeometry x="620" y="590" width="115" height="90" as="geometry" />
        </mxCell>
        <mxCell id="yIrZOceJZYxYdoTycJ7F-46" value="&lt;span style=&quot;font-size: 18px;&quot;&gt;Provide more network opporunities&lt;/span&gt;" style="text;html=1;strokeColor=#B09500;fillColor=#f0d824;align=center;verticalAlign=middle;whiteSpace=wrap;rounded=0;fontColor=#000000;direction=east;" vertex="1" parent="1">
          <mxGeometry x="625" y="420" width="115" height="90" as="geometry" />
        </mxCell>
        <mxCell id="yIrZOceJZYxYdoTycJ7F-47" value="&lt;font style=&quot;font-size: 18px;&quot;&gt;&lt;b&gt;Final Problem&lt;br&gt;Select1 from top 5&lt;/b&gt;&lt;br&gt;&lt;/font&gt;" style="text;html=1;strokeColor=none;fillColor=none;align=center;verticalAlign=middle;whiteSpace=wrap;rounded=0;" vertex="1" parent="1">
          <mxGeometry x="10" y="720" width="160" height="30" as="geometry" />
        </mxCell>
        <mxCell id="yIrZOceJZYxYdoTycJ7F-48" value="&lt;span style=&quot;font-size: 18px;&quot;&gt;Creating a new Platform exclusively for surgeons&lt;/span&gt;" style="text;html=1;strokeColor=#B09500;fillColor=#f0d824;align=center;verticalAlign=middle;whiteSpace=wrap;rounded=0;fontColor=#000000;direction=east;" vertex="1" parent="1">
          <mxGeometry x="50" y="540" width="215" height="50" as="geometry" />
        </mxCell>
        <mxCell id="yIrZOceJZYxYdoTycJ7F-49" value="" style="endArrow=classic;html=1;rounded=0;strokeWidth=4;" edge="1" parent="1">
          <mxGeometry width="50" height="50" relative="1" as="geometry">
            <mxPoint x="405" y="550" as="sourcePoint" />
            <mxPoint x="345" y="550" as="targetPoint" />
          </mxGeometry>
        </mxCell>
      </root>
    </mxGraphModel>
  </diagram>
</mxfile>
